<mxfile host="app.diagrams.net" modified="2021-04-04T14:43:00.027Z" agent="5.0 (Windows NT 10.0; Win64; x64) AppleWebKit/537.36 (KHTML, like Gecko) Chrome/89.0.4389.114 Safari/537.36" etag="-9THJ2KK825kq8X0dntT" version="14.4.8" type="github">
  <diagram id="yp7Leg4UNXgGJCauUP3w" name="Page-1">
    <mxGraphModel dx="-454" dy="677" grid="1" gridSize="10" guides="1" tooltips="1" connect="1" arrows="1" fold="1" page="1" pageScale="1" pageWidth="827" pageHeight="1169" math="0" shadow="0">
      <root>
        <mxCell id="0" />
        <mxCell id="1" parent="0" />
        <mxCell id="gKbwiVIr-9D4iEGDyd9_-1" value="" style="ellipse;whiteSpace=wrap;html=1;aspect=fixed;fillColor=#000000;" vertex="1" parent="1">
          <mxGeometry x="1356" y="80" width="21" height="21" as="geometry" />
        </mxCell>
        <mxCell id="gKbwiVIr-9D4iEGDyd9_-2" value="" style="endArrow=classic;html=1;exitX=0.5;exitY=1;exitDx=0;exitDy=0;" edge="1" parent="1" source="gKbwiVIr-9D4iEGDyd9_-1" target="gKbwiVIr-9D4iEGDyd9_-4">
          <mxGeometry width="50" height="50" relative="1" as="geometry">
            <mxPoint x="1079" y="286" as="sourcePoint" />
            <mxPoint x="1367" y="187" as="targetPoint" />
          </mxGeometry>
        </mxCell>
        <mxCell id="gKbwiVIr-9D4iEGDyd9_-3" style="edgeStyle=orthogonalEdgeStyle;rounded=0;orthogonalLoop=1;jettySize=auto;html=1;" edge="1" parent="1" source="gKbwiVIr-9D4iEGDyd9_-4" target="gKbwiVIr-9D4iEGDyd9_-6">
          <mxGeometry relative="1" as="geometry" />
        </mxCell>
        <mxCell id="gKbwiVIr-9D4iEGDyd9_-4" value="Click on the Edit button" style="rounded=1;whiteSpace=wrap;html=1;fillColor=#dae8fc;strokeColor=#6c8ebf;" vertex="1" parent="1">
          <mxGeometry x="1303" y="135" width="131" height="68" as="geometry" />
        </mxCell>
        <mxCell id="gKbwiVIr-9D4iEGDyd9_-5" style="edgeStyle=orthogonalEdgeStyle;rounded=0;orthogonalLoop=1;jettySize=auto;html=1;" edge="1" parent="1" source="gKbwiVIr-9D4iEGDyd9_-6" target="gKbwiVIr-9D4iEGDyd9_-8">
          <mxGeometry relative="1" as="geometry" />
        </mxCell>
        <mxCell id="gKbwiVIr-9D4iEGDyd9_-6" value="Enter the sales percentage with the corresponding field" style="rounded=1;whiteSpace=wrap;html=1;fillColor=#dae8fc;strokeColor=#6c8ebf;" vertex="1" parent="1">
          <mxGeometry x="1303" y="233" width="131" height="68" as="geometry" />
        </mxCell>
        <mxCell id="gKbwiVIr-9D4iEGDyd9_-7" style="edgeStyle=orthogonalEdgeStyle;rounded=0;orthogonalLoop=1;jettySize=auto;html=1;" edge="1" parent="1" source="gKbwiVIr-9D4iEGDyd9_-8" target="gKbwiVIr-9D4iEGDyd9_-12">
          <mxGeometry relative="1" as="geometry" />
        </mxCell>
        <mxCell id="gKbwiVIr-9D4iEGDyd9_-8" value="Click &quot;save&quot; button" style="rounded=1;whiteSpace=wrap;html=1;fillColor=#dae8fc;strokeColor=#6c8ebf;" vertex="1" parent="1">
          <mxGeometry x="1303" y="334" width="131" height="68" as="geometry" />
        </mxCell>
        <mxCell id="gKbwiVIr-9D4iEGDyd9_-9" value="" style="ellipse;whiteSpace=wrap;html=1;aspect=fixed;fillColor=#000000;" vertex="1" parent="1">
          <mxGeometry x="1358" y="690" width="21" height="21" as="geometry" />
        </mxCell>
        <mxCell id="gKbwiVIr-9D4iEGDyd9_-10" style="edgeStyle=orthogonalEdgeStyle;rounded=0;orthogonalLoop=1;jettySize=auto;html=1;entryX=0.5;entryY=0;entryDx=0;entryDy=0;" edge="1" parent="1" source="gKbwiVIr-9D4iEGDyd9_-12" target="gKbwiVIr-9D4iEGDyd9_-14">
          <mxGeometry relative="1" as="geometry">
            <Array as="points">
              <mxPoint x="1240" y="470" />
              <mxPoint x="1240" y="530" />
              <mxPoint x="1263" y="530" />
              <mxPoint x="1263" y="520" />
              <mxPoint x="1246" y="520" />
            </Array>
          </mxGeometry>
        </mxCell>
        <mxCell id="gKbwiVIr-9D4iEGDyd9_-11" style="edgeStyle=orthogonalEdgeStyle;rounded=0;orthogonalLoop=1;jettySize=auto;html=1;entryX=0.5;entryY=0;entryDx=0;entryDy=0;" edge="1" parent="1" source="gKbwiVIr-9D4iEGDyd9_-12" target="gKbwiVIr-9D4iEGDyd9_-16">
          <mxGeometry relative="1" as="geometry">
            <Array as="points">
              <mxPoint x="1500" y="470" />
              <mxPoint x="1500" y="520" />
            </Array>
          </mxGeometry>
        </mxCell>
        <mxCell id="gKbwiVIr-9D4iEGDyd9_-12" value="Is update data valid ?" style="rhombus;whiteSpace=wrap;html=1;fillColor=#dae8fc;strokeColor=#6c8ebf;" vertex="1" parent="1">
          <mxGeometry x="1282.75" y="430" width="171.5" height="80" as="geometry" />
        </mxCell>
        <mxCell id="gKbwiVIr-9D4iEGDyd9_-13" style="edgeStyle=orthogonalEdgeStyle;rounded=0;orthogonalLoop=1;jettySize=auto;html=1;entryX=0;entryY=0.5;entryDx=0;entryDy=0;" edge="1" parent="1" source="gKbwiVIr-9D4iEGDyd9_-14" target="gKbwiVIr-9D4iEGDyd9_-9">
          <mxGeometry relative="1" as="geometry">
            <Array as="points">
              <mxPoint x="1246" y="701" />
            </Array>
          </mxGeometry>
        </mxCell>
        <mxCell id="gKbwiVIr-9D4iEGDyd9_-14" value="Log error" style="rounded=1;whiteSpace=wrap;html=1;fillColor=#dae8fc;strokeColor=#6c8ebf;" vertex="1" parent="1">
          <mxGeometry x="1180" y="540" width="131" height="68" as="geometry" />
        </mxCell>
        <mxCell id="gKbwiVIr-9D4iEGDyd9_-15" style="edgeStyle=orthogonalEdgeStyle;rounded=0;orthogonalLoop=1;jettySize=auto;html=1;entryX=1;entryY=0.5;entryDx=0;entryDy=0;" edge="1" parent="1" source="gKbwiVIr-9D4iEGDyd9_-16" target="gKbwiVIr-9D4iEGDyd9_-9">
          <mxGeometry relative="1" as="geometry">
            <Array as="points">
              <mxPoint x="1500" y="701" />
            </Array>
          </mxGeometry>
        </mxCell>
        <mxCell id="gKbwiVIr-9D4iEGDyd9_-16" value="Render the updated product details" style="rounded=1;whiteSpace=wrap;html=1;fillColor=#dae8fc;strokeColor=#6c8ebf;" vertex="1" parent="1">
          <mxGeometry x="1434" y="540" width="131" height="68" as="geometry" />
        </mxCell>
      </root>
    </mxGraphModel>
  </diagram>
</mxfile>
